# xmcd
#
# Track frame offsets:
#  150
#  14650
#  25787
#  45532
#  58632
#  73302
#  83772
#  94615
#  108565
#  128492
#
# Disc length: 1906 seconds
#
# Revision: 0
# Processed by: cddbd v1.5.2PL0 Copyright (c) Steve Scherf et al.
# Submitted via: Collectorz.com_Music_Collector 6.9
#
DISCID=7e07700a
DTITLE=101 Strings Orchestra - Memories Of Germany
DYEAR=1900
DGENRE=Ethnic
TTITLE0=Medley: In Muenchen Steht Ein Hofbrauhaus/Trink, Trink, Bruederlein, Trink
TTITLE1=Du, Du Liegst Mir im Herzen
TTITLE2=Medley: Kommet Ein Voeglein/Geflogen/Im Schoenen Wiesengrunde
TTITLE3=Schwabing Polka
TTITLE4=Lili Marlene
TTITLE5=Wunderbar
TTITLE6=Maiennacht
TTITLE7=Kirschweih Polka
TTITLE8=Die Lorelei
TTITLE9=Auf Wiedersehen
EXTD=
EXTT0=
EXTT1=
EXTT2=
EXTT3=
EXTT4=
EXTT5=
EXTT6=
EXTT7=
EXTT8=
EXTT9=
PLAYORDER=
